# xmcd
#
# Track frame offsets: 
#        150
#        18645
#        43074
#        62474
#        77866
#        99496
#        123285
#        138304
#        163559
#
# Disc length: 2369 seconds
#
# Revision: 0
# Processed by: cddbd v1.5.2PL0 Copyright (c) Steve Scherf et al.
# Submitted via: ExactAudioCopy v0.99pb3
#
DISCID=6f093f09
DTITLE=Tutu Jones - Inside Out
DYEAR=2009
DGENRE=Blues
TTITLE0=Starting All Over
TTITLE1=I Can Write A Book About You
TTITLE2=Weekend Driver
TTITLE3=Diggin' On You
TTITLE4=i'm So Proud
TTITLE5=Six Pack
TTITLE6=Gain You Love
TTITLE7=I Feel Good This Morning
TTITLE8=Let Me Do
EXTD=
EXTT0=
EXTT1=
EXTT2=
EXTT3=
EXTT4=
EXTT5=
EXTT6=
EXTT7=
EXTT8=
PLAYORDER=
